# xmcd CD database file
#
# Track frame offsets:
#	150
#	35895
#	51562
#	74937
#	83242
#	106137
#	135927
#	168597
#	201132
#	227630
#	255010
#	273820
#	300605
#
# Disc length: 4057 seconds
#
# Revision: 0
# Processed by: cddbd v1.5.2PL0 Copyright (c) Steve Scherf et al.
# Submitted via: CDex 1.51
#
DISCID=b30fd70d
DTITLE=O Septeto Plus - Rodinha
DYEAR=1998
DGENRE=Jazz
TTITLE0=Capoeira
TTITLE1=Nel
TTITLE2=Rodinha
TTITLE3=Astral d G Nio
TTITLE4=Casa do Hermeto
TTITLE5=Alagoano no Tibete
TTITLE6=Nossa Vida
TTITLE7=Comida de M e
TTITLE8=Lyra
TTITLE9=Sonia
TTITLE10=Beatriz
TTITLE11=Mumulher
TTITLE12=Para Patricia
EXTD=YEAR: 1998
EXTT0=
EXTT1=
EXTT2=
EXTT3=
EXTT4=
EXTT5=
EXTT6=
EXTT7=
EXTT8=
EXTT9=
EXTT10=
EXTT11=
EXTT12=
PLAYORDER=
